<svg width="24" height="24" viewBox="0 0 24 24" fill="none" xmlns="http://www.w3.org/2000/svg">
<path d="M12.1722 17.5663C11.9189 17.4124 11.6012 17.4125 11.3479 17.5664L7.46314 19.9274C6.861 20.2933 6.11663 19.7519 6.27663 19.0643L7.30655 14.6387C7.37346 14.3511 7.27644 14.0501 7.0544 13.8562L3.6349 10.8703C3.10522 10.4078 3.38997 9.53415 4.08982 9.47455L8.59622 9.09084C8.88967 9.06585 9.14532 8.88028 9.26062 8.60855L11.0292 4.44072C11.3036 3.79385 12.218 3.79385 12.4925 4.44072L14.2611 8.60855C14.3764 8.88028 14.632 9.06585 14.9255 9.09084L19.4319 9.47455C20.1317 9.53415 20.4165 10.4078 19.8868 10.8703L16.4673 13.8562C16.2452 14.0501 16.1482 14.3511 16.2151 14.6387L17.2451 19.0646C17.4051 19.7521 16.6608 20.2936 16.0587 19.9277L12.1722 17.5663Z" fill="#F3BF25"/>
</svg>
