<svg width="401" height="113" viewBox="0 0 401 113" fill="none" xmlns="http://www.w3.org/2000/svg">
<path opacity="0.25" d="M0.5 111.062V110.562V2.47773V1.97773H1L45.6479 1.97772C53.7987 1.97772 60.8615 3.44827 66.82 6.4092C72.8138 9.3349 77.4447 13.5519 80.6983 19.0575C80.6986 19.0579 80.6988 19.0583 80.699 19.0587L80.2686 19.3131C83.4703 24.6961 85.0711 31.082 85.0711 38.4705C85.0711 45.9646 83.4351 52.3328 80.163 57.5752L0.5 111.062ZM0.5 111.062H1H27.1238H27.6238V110.562V74.0661M0.5 111.062L27.6238 74.0661M27.6238 74.0661H40.2044L59.8257 110.797L59.9669 111.062H60.2667L88.7654 111.062H89.6072L89.2045 110.322L67.054 69.6698C72.8551 66.9001 77.3714 62.9576 80.5864 57.8412L27.6238 74.0661ZM372.753 35.3818L372.712 34.927C372.371 31.1789 370.864 28.3046 368.207 26.2529L368.202 26.2486L368.202 26.2486C365.578 24.1633 361.782 23.0851 356.744 23.0851C353.406 23.0851 350.657 23.5204 348.482 24.3702C346.296 25.2241 344.694 26.3873 343.638 27.8401L343.635 27.8445L343.634 27.8445C342.574 29.2696 342.025 30.9089 341.992 32.7797L341.991 32.7925L341.991 32.7925C341.925 34.3283 342.225 35.6556 342.873 36.7929C343.569 37.9507 344.568 38.9886 345.887 39.9024C347.254 40.7899 348.904 41.5818 350.843 42.2744C352.789 42.9694 354.984 43.5795 357.429 44.1035L357.435 44.1048L357.435 44.1049L366.719 46.2148C366.72 46.215 366.721 46.2152 366.721 46.2154C372.098 47.3828 376.849 48.9417 380.971 50.8958C380.971 50.8958 380.971 50.8959 380.971 50.8959L380.757 51.3477C384.873 53.2828 388.321 55.5873 391.101 58.2613L372.753 35.3818ZM372.753 35.3818H373.21H398.225H398.731L398.725 34.8765C398.654 28.0689 396.888 22.0613 393.416 16.8713C389.946 11.6845 385.068 7.66916 378.801 4.82032C372.565 1.9342 365.226 0.5 356.797 0.5C348.541 0.5 341.17 1.91736 334.694 4.7643C328.219 7.61021 323.131 11.5861 319.448 16.6987C315.758 21.8221 313.936 27.7846 313.971 34.5656C313.936 42.8837 316.655 49.5361 322.159 54.4645L322.16 54.4657C327.624 59.3218 335.079 62.8168 344.493 64.9758C344.493 64.9759 344.493 64.976 344.494 64.9761L355.786 67.6144L355.786 67.6146C359.71 68.5254 362.916 69.5201 365.412 70.595L365.412 70.595L365.42 70.5982C367.944 71.6355 369.764 72.8621 370.926 74.2557L370.93 74.2602C372.078 75.6055 372.675 77.2301 372.71 79.1606C372.675 81.2302 372.026 83.0559 370.76 84.6552C369.491 86.2582 367.655 87.5308 365.221 88.4564L365.219 88.4572C362.829 89.379 359.903 89.8487 356.427 89.8487C352.644 89.8487 349.333 89.2586 346.484 88.0919C343.678 86.928 341.487 85.2249 339.894 82.9867C338.305 80.7564 337.395 77.9493 337.188 74.5386L337.16 74.0688H336.689L311.674 74.0688H311.167L311.174 74.5751C311.28 83.0908 313.215 90.1766 317.012 95.8004C320.802 101.414 326.109 105.591 332.914 108.334C339.706 111.072 347.653 112.434 356.744 112.434C365.796 112.434 373.551 111.126 379.995 108.492C386.473 105.858 391.465 102.055 394.941 97.0734C398.42 92.0881 400.167 86.1276 400.203 79.2157L400.203 79.209C400.167 74.8266 399.419 70.8563 397.948 67.3056C396.478 63.7563 394.309 60.6203 391.446 57.8999L372.753 35.3818ZM40.001 52.4837H27.6238V24.0351L40.001 24.0351C43.8615 24.0351 47.0807 24.592 49.676 25.6847L49.6812 25.6869C52.2683 26.7421 54.2035 28.331 55.514 30.448L55.5159 30.451C56.825 32.5322 57.4974 35.1947 57.4974 38.4705C57.4974 41.7462 56.8251 44.389 55.5186 46.4331C54.2111 48.4436 52.2776 49.965 49.6877 50.9876C47.1246 51.9784 43.9014 52.4837 40.001 52.4837ZM123.051 2.47772V1.97772H122.551L96.4273 1.97772H95.9273V2.47772V110.562V111.062H96.4273H122.551H123.051V110.562V2.47772ZM135.479 110.562V111.062H135.979H162.103H162.603V110.562V67.6275H205.062H205.562V67.1275V45.8591V45.3591H205.062L162.603 45.3591V24.1934L209.759 24.1934H210.259V23.6934V2.47772V1.97772L209.759 1.97772L135.979 1.97772H135.479V2.47772V110.562ZM229.823 111.062H230.19L230.3 110.711L237.3 88.3682H273.892L280.907 110.711L281.017 111.062H281.384L309.461 111.062H310.157L309.935 110.402L273.467 2.31787L273.352 1.97771L272.993 1.97771L238.214 1.97772L237.855 1.97772L237.74 2.31787L201.273 110.402L201.05 111.062H201.746L229.823 111.062ZM255.632 30.2098L267.348 67.5247H243.831L255.522 30.2098H255.632Z" stroke="white"/>
</svg>
