<svg width="24" height="24" viewBox="0 0 24 24" fill="none" xmlns="http://www.w3.org/2000/svg">
<path d="M16.3956 6.13188L16.3956 16.3022C16.3956 17.5481 15.9007 18.743 15.0197 19.624C14.1387 20.5051 12.9438 21 11.6978 21C10.4519 21 9.25697 20.5051 8.37596 19.624C7.49495 18.743 7 17.5481 7 16.3022L7 6.13188C7 5.30125 7.32996 4.50465 7.91731 3.91731C8.50465 3.32997 9.30125 3 10.1319 3C10.9625 3 11.7591 3.32996 12.3465 3.91731C12.9338 4.50465 13.2638 5.30125 13.2638 6.13188L13.2582 16.3077C13.2582 16.723 13.0932 17.1213 12.7996 17.415C12.5059 17.7087 12.1076 17.8737 11.6923 17.8737C11.277 17.8737 10.8787 17.7087 10.585 17.415C10.2913 17.1213 10.1263 16.723 10.1263 16.3077L10.1319 6.91761" stroke="white" stroke-opacity="0.74" stroke-width="1.5" stroke-linecap="round" stroke-linejoin="round"/>
</svg>
