<svg width="20" height="20" viewBox="0 0 20 20" fill="none" xmlns="http://www.w3.org/2000/svg">
<path d="M10.8333 9.99992C10.8333 9.53968 10.4602 9.16659 9.99996 9.16659C9.53972 9.16659 9.16663 9.53968 9.16663 9.99992C9.16663 10.4602 9.53972 10.8333 9.99996 10.8333C10.4602 10.8333 10.8333 10.4602 10.8333 9.99992Z" stroke="white" stroke-opacity="0.74" stroke-width="1.5" stroke-linecap="round" stroke-linejoin="round"/>
<path d="M5.00004 9.99992C5.00004 9.53968 4.62694 9.16659 4.16671 9.16659C3.70647 9.16659 3.33337 9.53968 3.33337 9.99992C3.33337 10.4602 3.70647 10.8333 4.16671 10.8333C4.62694 10.8333 5.00004 10.4602 5.00004 9.99992Z" stroke="white" stroke-opacity="0.74" stroke-width="1.5" stroke-linecap="round" stroke-linejoin="round"/>
<path d="M16.6667 9.99992C16.6667 9.53968 16.2936 9.16659 15.8333 9.16659C15.3731 9.16659 15 9.53968 15 9.99992C15 10.4602 15.3731 10.8333 15.8333 10.8333C16.2936 10.8333 16.6667 10.4602 16.6667 9.99992Z" stroke="white" stroke-opacity="0.74" stroke-width="1.5" stroke-linecap="round" stroke-linejoin="round"/>
</svg>
