<svg width="24" height="24" viewBox="0 0 24 24" fill="none" xmlns="http://www.w3.org/2000/svg">
<g clip-path="url(#clip0_16464_5720)">
<path fill-rule="evenodd" clip-rule="evenodd" d="M23.9993 12C23.9993 18.6273 18.6269 23.9997 11.9997 23.9997C5.37244 23.9997 0 18.6273 0 12C0 5.3728 5.37244 0.000366211 11.9997 0.000366211C18.6269 0.000366211 23.9993 5.3728 23.9993 12ZM12.4297 8.85905C11.2625 9.34451 8.92989 10.3493 5.43174 11.8734C4.8637 12.0993 4.56613 12.3202 4.53904 12.5363C4.49326 12.9015 4.95057 13.0453 5.57332 13.2411C5.65803 13.2678 5.7458 13.2954 5.83578 13.3246C6.44846 13.5238 7.27263 13.7568 7.70108 13.766C8.08972 13.7744 8.52349 13.6142 9.00239 13.2853C12.2708 11.0791 13.958 9.9639 14.0639 9.93986C14.1387 9.9229 14.2422 9.90158 14.3124 9.96394C14.3825 10.0263 14.3756 10.1444 14.3682 10.1761C14.3229 10.3692 12.5278 12.0381 11.5988 12.9018C11.3092 13.171 11.1038 13.362 11.0618 13.4056C10.9677 13.5033 10.8718 13.5958 10.7797 13.6846C10.2105 14.2333 9.78364 14.6448 10.8033 15.3167C11.2933 15.6396 11.6854 15.9067 12.0766 16.1731C12.5038 16.464 12.9299 16.7542 13.4812 17.1156C13.6217 17.2076 13.7559 17.3033 13.8865 17.3964C14.3837 17.7509 14.8303 18.0693 15.3822 18.0185C15.7028 17.989 16.034 17.6875 16.2022 16.7883C16.5998 14.6631 17.3811 10.0585 17.5617 8.16112C17.5776 7.99488 17.5577 7.78212 17.5417 7.68873C17.5257 7.59534 17.4923 7.46227 17.3709 7.36376C17.2271 7.2471 17.0052 7.2225 16.9059 7.22425C16.4546 7.2322 15.7621 7.47298 12.4297 8.85905Z" fill="#FFFFFFBD" fill-opacity="1"/>
</g>
<defs>
<clipPath id="clip0_16464_5720">
<rect width="23.9993" height="23.9993" fill="white" transform="translate(0 0.000366211)"/>
</clipPath>
</defs>
</svg>
