<svg width="24" height="24" viewBox="0 0 24 24" fill="none" xmlns="http://www.w3.org/2000/svg">
<path d="M-0.000732422 24L1.68627 17.837C0.645267 16.033 0.0982676 13.988 0.0992676 11.891C0.102268 5.335 5.43727 0 11.9923 0C15.1733 0.001 18.1593 1.24 20.4053 3.488C22.6503 5.736 23.8863 8.724 23.8853 11.902C23.8823 18.459 18.5473 23.794 11.9923 23.794C10.0023 23.793 8.04127 23.294 6.30427 22.346L-0.000732422 24ZM6.59627 20.193C8.27227 21.188 9.87227 21.784 11.9883 21.785C17.4363 21.785 21.8743 17.351 21.8773 11.9C21.8793 6.438 17.4623 2.01 11.9963 2.008C6.54427 2.008 2.10927 6.442 2.10727 11.892C2.10627 14.117 2.75827 15.783 3.85327 17.526L2.85427 21.174L6.59627 20.193ZM17.9833 14.729C17.9093 14.605 17.7113 14.531 17.4133 14.382C17.1163 14.233 15.6553 13.514 15.3823 13.415C15.1103 13.316 14.9123 13.266 14.7133 13.564C14.5153 13.861 13.9453 14.531 13.7723 14.729C13.5993 14.927 13.4253 14.952 13.1283 14.803C12.8313 14.654 11.8733 14.341 10.7383 13.328C9.85527 12.54 9.25827 11.567 9.08527 11.269C8.91227 10.972 9.06727 10.811 9.21527 10.663C9.34927 10.53 9.51227 10.316 9.66127 10.142C9.81227 9.97 9.86127 9.846 9.96127 9.647C10.0603 9.449 10.0113 9.275 9.93627 9.126C9.86127 8.978 9.26727 7.515 9.02027 6.92C8.77827 6.341 8.53327 6.419 8.35127 6.41L7.78127 6.4C7.58327 6.4 7.26127 6.474 6.98927 6.772C6.71727 7.07 5.94927 7.788 5.94927 9.251C5.94927 10.714 7.01427 12.127 7.16227 12.325C7.31127 12.523 9.25727 15.525 12.2383 16.812C12.9473 17.118 13.5013 17.301 13.9323 17.438C14.6443 17.664 15.2923 17.632 15.8043 17.556C16.3753 17.471 17.5623 16.837 17.8103 16.143C18.0583 15.448 18.0583 14.853 17.9833 14.729Z" fill="#FFFFFFBD" fill-opacity="1"/>
</svg>
