<svg width="36" height="36" viewBox="0 0 36 36" fill="none" xmlns="http://www.w3.org/2000/svg">
<g clip-path="url(#clip0_307_6440)">
<path d="M18.0002 22.1668C20.3013 22.1668 22.1668 20.3013 22.1668 18.0002C22.1668 15.699 20.3013 13.8335 18.0002 13.8335C15.699 13.8335 13.8335 15.699 13.8335 18.0002C13.8335 20.3013 15.699 22.1668 18.0002 22.1668Z" stroke="white" stroke-opacity="0.74" stroke-width="1.25" stroke-linecap="round" stroke-linejoin="round"/>
<path d="M18 8.8335V10.5002" stroke="white" stroke-opacity="0.74" stroke-width="1.25" stroke-linecap="round" stroke-linejoin="round"/>
<path d="M18 25.5V27.1667" stroke="white" stroke-opacity="0.74" stroke-width="1.25" stroke-linecap="round" stroke-linejoin="round"/>
<path d="M11.5166 11.5166L12.6999 12.6999" stroke="white" stroke-opacity="0.74" stroke-width="1.25" stroke-linecap="round" stroke-linejoin="round"/>
<path d="M23.2998 23.3003L24.4831 24.4836" stroke="white" stroke-opacity="0.74" stroke-width="1.25" stroke-linecap="round" stroke-linejoin="round"/>
<path d="M8.8335 18H10.5002" stroke="white" stroke-opacity="0.74" stroke-width="1.25" stroke-linecap="round" stroke-linejoin="round"/>
<path d="M25.5 18H27.1667" stroke="white" stroke-opacity="0.74" stroke-width="1.25" stroke-linecap="round" stroke-linejoin="round"/>
<path d="M11.5166 24.4836L12.6999 23.3003" stroke="white" stroke-opacity="0.74" stroke-width="1.25" stroke-linecap="round" stroke-linejoin="round"/>
<path d="M23.2998 12.6999L24.4831 11.5166" stroke="white" stroke-opacity="0.74" stroke-width="1.25" stroke-linecap="round" stroke-linejoin="round"/>
</g>
<defs>
<clipPath id="clip0_307_6440">
<rect width="20" height="20" fill="white" transform="translate(8 8)"/>
</clipPath>
</defs>
</svg>
