<svg width="24" height="24" viewBox="0 0 24 24" fill="none" xmlns="http://www.w3.org/2000/svg">
<path d="M14.0769 12.7308H18.6153V11.2308H14.0769V12.7308ZM14.0769 9.84616H18.6153V8.34618H14.0769V9.84616ZM5.38463 15.6538H12.6923V15.2962C12.6923 14.6295 12.3625 14.1058 11.7029 13.725C11.0432 13.3442 10.1551 13.1539 9.03845 13.1539C7.92178 13.1539 7.03364 13.3442 6.37403 13.725C5.71443 14.1058 5.38463 14.6295 5.38463 15.2962V15.6538ZM9.03845 11.8462C9.52433 11.8462 9.93747 11.676 10.2779 11.3356C10.6182 10.9952 10.7884 10.5821 10.7884 10.0962C10.7884 9.61027 10.6182 9.19714 10.2779 8.85676C9.93747 8.51637 9.52433 8.34618 9.03845 8.34618C8.55255 8.34618 8.13941 8.51637 7.79903 8.85676C7.45864 9.19714 7.28845 9.61027 7.28845 10.0962C7.28845 10.5821 7.45864 10.9952 7.79903 11.3356C8.13941 11.676 8.55255 11.8462 9.03845 11.8462ZM4.3077 19.5C3.80257 19.5 3.375 19.325 3.025 18.975C2.675 18.625 2.5 18.1974 2.5 17.6923V6.30773C2.5 5.8026 2.675 5.37503 3.025 5.02503C3.375 4.67503 3.80257 4.50003 4.3077 4.50003H19.6923C20.1974 4.50003 20.625 4.67503 20.975 5.02503C21.325 5.37503 21.5 5.8026 21.5 6.30773V17.6923C21.5 18.1974 21.325 18.625 20.975 18.975C20.625 19.325 20.1974 19.5 19.6923 19.5H4.3077ZM4.3077 18H19.6923C19.7692 18 19.8397 17.968 19.9038 17.9039C19.9679 17.8397 20 17.7692 20 17.6923V6.30773C20 6.2308 19.9679 6.16027 19.9038 6.09616C19.8397 6.03206 19.7692 6.00001 19.6923 6.00001H4.3077C4.23077 6.00001 4.16024 6.03206 4.09613 6.09616C4.03202 6.16027 3.99998 6.2308 3.99998 6.30773V17.6923C3.99998 17.7692 4.03202 17.8397 4.09613 17.9039C4.16024 17.968 4.23077 18 4.3077 18Z" fill="white" fill-opacity="0.74"/>
</svg>
