<svg width="25" height="24" viewBox="0 0 25 24" fill="none" xmlns="http://www.w3.org/2000/svg">
<path d="M12.6484 6.58594C15.6016 6.58594 18.0391 9.02344 18.0391 11.9766C18.0391 14.9766 15.6016 17.3672 12.6484 17.3672C9.64844 17.3672 7.25781 14.9766 7.25781 11.9766C7.25781 9.02344 9.64844 6.58594 12.6484 6.58594ZM12.6484 15.4922C14.5703 15.4922 16.1172 13.9453 16.1172 11.9766C16.1172 10.0547 14.5703 8.50781 12.6484 8.50781C10.6797 8.50781 9.13281 10.0547 9.13281 11.9766C9.13281 13.9453 10.7266 15.4922 12.6484 15.4922ZM19.4922 6.39844C19.4922 5.69531 18.9297 5.13281 18.2266 5.13281C17.5234 5.13281 16.9609 5.69531 16.9609 6.39844C16.9609 7.10156 17.5234 7.66406 18.2266 7.66406C18.9297 7.66406 19.4922 7.10156 19.4922 6.39844ZM23.0547 7.66406C23.1484 9.39844 23.1484 14.6016 23.0547 16.3359C22.9609 18.0234 22.5859 19.4766 21.3672 20.7422C20.1484 21.9609 18.6484 22.3359 16.9609 22.4297C15.2266 22.5234 10.0234 22.5234 8.28906 22.4297C6.60156 22.3359 5.14844 21.9609 3.88281 20.7422C2.66406 19.4766 2.28906 18.0234 2.19531 16.3359C2.10156 14.6016 2.10156 9.39844 2.19531 7.66406C2.28906 5.97656 2.66406 4.47656 3.88281 3.25781C5.14844 2.03906 6.60156 1.66406 8.28906 1.57031C10.0234 1.47656 15.2266 1.47656 16.9609 1.57031C18.6484 1.66406 20.1484 2.03906 21.3672 3.25781C22.5859 4.47656 22.9609 5.97656 23.0547 7.66406ZM20.8047 18.1641C21.3672 16.8047 21.2266 13.5234 21.2266 11.9766C21.2266 10.4766 21.3672 7.19531 20.8047 5.78906C20.4297 4.89844 19.7266 4.14844 18.8359 3.82031C17.4297 3.25781 14.1484 3.39844 12.6484 3.39844C11.1016 3.39844 7.82031 3.25781 6.46094 3.82031C5.52344 4.19531 4.82031 4.89844 4.44531 5.78906C3.88281 7.19531 4.02344 10.4766 4.02344 11.9766C4.02344 13.5234 3.88281 16.8047 4.44531 18.1641C4.82031 19.1016 5.52344 19.8047 6.46094 20.1797C7.82031 20.7422 11.1016 20.6016 12.6484 20.6016C14.1484 20.6016 17.4297 20.7422 18.8359 20.1797C19.7266 19.8047 20.4766 19.1016 20.8047 18.1641Z" fill="white" fill-opacity="0.74"/>
</svg>
