<svg width="25" height="24" viewBox="0 0 25 24" fill="none" xmlns="http://www.w3.org/2000/svg">
<path d="M13 11.7923V7.5C13 7.35833 12.952 7.23958 12.856 7.14375C12.76 7.04792 12.6411 7 12.4993 7C12.3574 7 12.2388 7.04792 12.1433 7.14375C12.0478 7.23958 12 7.35833 12 7.5V11.8787C12 11.9809 12.0186 12.0799 12.0558 12.1757C12.0929 12.2714 12.1551 12.3628 12.2423 12.45L15.7923 16C15.8859 16.0937 16.0007 16.1437 16.1365 16.15C16.2725 16.1563 16.3937 16.1063 16.5 16C16.6063 15.8937 16.6595 15.7758 16.6595 15.6463C16.6595 15.5168 16.6063 15.3988 16.5 15.2923L13 11.7923ZM12.5033 21C11.2588 21 10.0887 20.7638 8.993 20.2915C7.8975 19.8192 6.9445 19.1782 6.134 18.3685C5.3235 17.5588 4.68192 16.6067 4.20925 15.512C3.73642 14.4175 3.5 13.2479 3.5 12.0033C3.5 10.7588 3.73617 9.58867 4.2085 8.493C4.68083 7.3975 5.32183 6.4445 6.1315 5.634C6.94117 4.8235 7.89333 4.18192 8.988 3.70925C10.0825 3.23642 11.2521 3 12.4967 3C13.7413 3 14.9113 3.23617 16.007 3.7085C17.1025 4.18083 18.0555 4.82183 18.866 5.6315C19.6765 6.44117 20.3181 7.39333 20.7908 8.488C21.2636 9.5825 21.5 10.7521 21.5 11.9967C21.5 13.2413 21.2638 14.4113 20.7915 15.507C20.3192 16.6025 19.6782 17.5555 18.8685 18.366C18.0588 19.1765 17.1067 19.8181 16.012 20.2908C14.9175 20.7636 13.7479 21 12.5033 21ZM12.5 20C14.7167 20 16.6042 19.2208 18.1625 17.6625C19.7208 16.1042 20.5 14.2167 20.5 12C20.5 9.78333 19.7208 7.89583 18.1625 6.3375C16.6042 4.77917 14.7167 4 12.5 4C10.2833 4 8.39583 4.77917 6.8375 6.3375C5.27917 7.89583 4.5 9.78333 4.5 12C4.5 14.2167 5.27917 16.1042 6.8375 17.6625C8.39583 19.2208 10.2833 20 12.5 20Z" fill="white" fill-opacity="0.74"/>
</svg>
