<svg width="24" height="24" viewBox="0 0 24 24" fill="none" xmlns="http://www.w3.org/2000/svg">
<path d="M0 12C0 5.37258 5.37258 0 12 0C18.6274 0 24 5.37258 24 12C24 18.6274 18.6274 24 12 24C5.37258 24 0 18.6274 0 12Z" fill="#24A1DE"/>
<path fill-rule="evenodd" clip-rule="evenodd" d="M12.7803 8.92768C11.703 9.37888 9.5575 10.2997 6.33466 11.6993C5.81901 11.9203 5.54277 12.1229 5.51514 12.3163C5.4691 12.657 5.89268 12.7859 6.46358 12.9608C6.53724 12.9885 6.62012 13.0069 6.70299 13.0345C7.26468 13.2187 8.02895 13.4304 8.4249 13.4396C8.78402 13.4396 9.17997 13.3015 9.62196 12.9977C12.633 10.9627 14.1892 9.94057 14.2813 9.91295C14.3457 9.89453 14.447 9.87611 14.5115 9.93136C14.5759 9.98661 14.5667 10.0971 14.5667 10.1247C14.5207 10.2997 12.8724 11.8374 12.0161 12.6385C11.749 12.8872 11.5649 13.0621 11.5188 13.0989C11.436 13.191 11.3439 13.2739 11.261 13.3568C10.7361 13.8632 10.3402 14.2408 11.2794 14.8577C11.7306 15.1524 12.0897 15.401 12.4488 15.6496C12.8448 15.9166 13.2315 16.1837 13.738 16.5152C13.8669 16.598 13.9866 16.6901 14.1155 16.773C14.5759 17.0953 14.9811 17.3899 15.4967 17.3439C15.7914 17.3163 16.0953 17.04 16.2518 16.2113C16.6201 14.25 17.3383 10.0142 17.5041 8.26469C17.5225 8.10816 17.5041 7.91479 17.4857 7.83191C17.4673 7.74904 17.4396 7.62013 17.3291 7.53726C17.2002 7.44517 16.9976 7.42676 16.9056 7.42676C16.4912 7.42676 15.8558 7.65696 12.7803 8.92768Z" fill="white"/>
<path fill-rule="evenodd" clip-rule="evenodd" d="M12.7803 8.92768C11.703 9.37888 9.5575 10.2997 6.33466 11.6993C5.81901 11.9203 5.54277 12.1229 5.51514 12.3163C5.4691 12.657 5.89268 12.7859 6.46358 12.9608C6.53724 12.9885 6.62012 13.0069 6.70299 13.0345C7.26468 13.2187 8.02895 13.4304 8.4249 13.4396C8.78402 13.4396 9.17997 13.3015 9.62196 12.9977C12.633 10.9627 14.1892 9.94057 14.2813 9.91295C14.3457 9.89453 14.447 9.87611 14.5115 9.93136C14.5759 9.98661 14.5667 10.0971 14.5667 10.1247C14.5207 10.2997 12.8724 11.8374 12.0161 12.6385C11.749 12.8872 11.5649 13.0621 11.5188 13.0989C11.436 13.191 11.3439 13.2739 11.261 13.3568C10.7361 13.8632 10.3402 14.2408 11.2794 14.8577C11.7306 15.1524 12.0897 15.401 12.4488 15.6496C12.8448 15.9166 13.2315 16.1837 13.738 16.5152C13.8669 16.598 13.9866 16.6901 14.1155 16.773C14.5759 17.0953 14.9811 17.3899 15.4967 17.3439C15.7914 17.3163 16.0953 17.04 16.2518 16.2113C16.6201 14.25 17.3383 10.0142 17.5041 8.26469C17.5225 8.10816 17.5041 7.91479 17.4857 7.83191C17.4673 7.74904 17.4396 7.62013 17.3291 7.53726C17.2002 7.44517 16.9976 7.42676 16.9056 7.42676C16.4912 7.42676 15.8558 7.65696 12.7803 8.92768Z" fill="white"/>
</svg>
