<svg width="24" height="24" viewBox="0 0 24 24" fill="none" xmlns="http://www.w3.org/2000/svg">
<path d="M0 12C0 5.37258 5.37261 0 12 0C18.6274 0 24.0001 5.37258 24.0001 12C24.0001 18.6274 18.6274 24 12 24C5.37261 24 0 18.6274 0 12Z" fill="#25D366"/>
<path d="M5.97144 18L6.81494 14.9185C6.29444 14.0165 6.02094 12.994 6.02144 11.9455C6.02294 8.6675 8.69044 6 11.9679 6C13.5584 6.0005 15.0514 6.62 16.1744 7.744C17.2969 8.868 17.9149 10.362 17.9144 11.951C17.9129 15.2295 15.2454 17.897 11.9679 17.897C10.9729 17.8965 9.99244 17.647 9.12394 17.173L5.97144 18ZM9.26994 16.0965C10.1079 16.594 10.9079 16.892 11.9659 16.8925C14.6899 16.8925 16.9089 14.6755 16.9104 11.95C16.9114 9.219 14.7029 7.005 11.9699 7.004C9.24394 7.004 7.02644 9.221 7.02544 11.946C7.02494 13.0585 7.35094 13.8915 7.89844 14.763L7.39894 16.587L9.26994 16.0965ZM14.9634 13.3645C14.9264 13.3025 14.8274 13.2655 14.6784 13.191C14.5299 13.1165 13.7994 12.757 13.6629 12.7075C13.5269 12.658 13.4279 12.633 13.3284 12.782C13.2294 12.9305 12.9444 13.2655 12.8579 13.3645C12.7714 13.4635 12.6844 13.476 12.5359 13.4015C12.3874 13.327 11.9084 13.1705 11.3409 12.664C10.8994 12.27 10.6009 11.7835 10.5144 11.6345C10.4279 11.486 10.5054 11.4055 10.5794 11.3315C10.6464 11.265 10.7279 11.158 10.8024 11.071C10.8779 10.985 10.9024 10.923 10.9524 10.8235C11.0019 10.7245 10.9774 10.6375 10.9399 10.563C10.9024 10.489 10.6054 9.7575 10.4819 9.46C10.3609 9.1705 10.2384 9.2095 10.1474 9.205L9.86244 9.2C9.76344 9.2 9.60244 9.237 9.46644 9.386C9.33044 9.535 8.94644 9.894 8.94644 10.6255C8.94644 11.357 9.47894 12.0635 9.55294 12.1625C9.62744 12.2615 10.6004 13.7625 12.0909 14.406C12.4454 14.559 12.7224 14.6505 12.9379 14.719C13.2939 14.832 13.6179 14.816 13.8739 14.778C14.1594 14.7355 14.7529 14.4185 14.8769 14.0715C15.0009 13.724 15.0009 13.4265 14.9634 13.3645Z" fill="white"/>
</svg>
