<svg width="24" height="24" viewBox="0 0 24 24" fill="none" xmlns="http://www.w3.org/2000/svg">
<path d="M0.0146484 12C0.0146484 5.37666 5.38393 0.00268555 12.0073 0.00268555C18.6306 0.00268555 23.9999 5.37666 23.9999 12C23.9999 18.6234 18.6306 23.9973 12.0073 23.9973C5.38393 23.9973 0.0146484 18.6234 0.0146484 12Z" fill="url(#paint0_linear_16593_4029)"/>
<path d="M0.0146484 12C0.0146484 5.37666 5.38393 0.00268555 12.0073 0.00268555C18.6306 0.00268555 23.9999 5.37666 23.9999 12C23.9999 18.6234 18.6306 23.9973 12.0073 23.9973C5.38393 23.9973 0.0146484 18.6234 0.0146484 12Z" fill="#F70573"/>
<mask id="mask0_16593_4029" style="mask-type:alpha" maskUnits="userSpaceOnUse" x="6" y="5" width="13" height="13">
<path d="M12.0144 7.0805C13.6178 7.0805 13.8077 7.08753 14.4383 7.11566C15.0243 7.14145 15.3408 7.2399 15.5518 7.32195C15.8307 7.42978 16.0323 7.56106 16.241 7.76969C16.4519 7.98067 16.5809 8.17993 16.6887 8.45889C16.7708 8.66987 16.8692 8.98868 16.895 9.57239C16.9231 10.2053 16.9302 10.3952 16.9302 11.9963C16.9302 13.5997 16.9231 13.7896 16.895 14.4202C16.8692 15.0063 16.7708 15.3227 16.6887 15.5337C16.5809 15.8127 16.4496 16.0143 16.241 16.2229C16.03 16.4339 15.8307 16.5628 15.5518 16.6707C15.3408 16.7527 15.022 16.8512 14.4383 16.8769C13.8053 16.9051 13.6155 16.9121 12.0144 16.9121C10.4109 16.9121 10.221 16.9051 9.59045 16.8769C9.00439 16.8512 8.68793 16.7527 8.47695 16.6707C8.19799 16.5628 7.99638 16.4315 7.78775 16.2229C7.57677 16.0119 7.44784 15.8127 7.34001 15.5337C7.25796 15.3227 7.1595 15.0039 7.13372 14.4202C7.10558 13.7873 7.09855 13.5974 7.09855 11.9963C7.09855 10.3929 7.10558 10.203 7.13372 9.57239C7.1595 8.98634 7.25796 8.66987 7.34001 8.45889C7.44784 8.17993 7.57911 7.97833 7.78775 7.76969C7.99873 7.55872 8.19799 7.42978 8.47695 7.32195C8.68793 7.2399 9.00674 7.14145 9.59045 7.11566C10.221 7.08753 10.4109 7.0805 12.0144 7.0805ZM12.0144 5.99982C10.3851 5.99982 10.1812 6.00685 9.54122 6.03498C8.90359 6.06311 8.46523 6.16626 8.08546 6.31394C7.68929 6.46866 7.35407 6.6726 7.02119 7.00783C6.68597 7.3407 6.48203 7.67593 6.32731 8.06975C6.17962 8.45186 6.07648 8.88788 6.04835 9.52551C6.02022 10.1678 6.01318 10.3718 6.01318 12.001C6.01318 13.6302 6.02022 13.8342 6.04835 14.4741C6.07648 15.1118 6.17962 15.5501 6.32731 15.9299C6.48203 16.3261 6.68597 16.6613 7.02119 16.9942C7.35407 17.327 7.68929 17.5333 8.08312 17.6857C8.46523 17.8334 8.90125 17.9365 9.53887 17.9647C10.1788 17.9928 10.3828 17.9998 12.012 17.9998C13.6412 17.9998 13.8452 17.9928 14.4852 17.9647C15.1228 17.9365 15.5611 17.8334 15.9409 17.6857C16.3347 17.5333 16.67 17.327 17.0028 16.9942C17.3357 16.6613 17.542 16.3261 17.6944 15.9322C17.8421 15.5501 17.9452 15.1141 17.9733 14.4765C18.0015 13.8365 18.0085 13.6326 18.0085 12.0033C18.0085 10.3741 18.0015 10.1702 17.9733 9.53019C17.9452 8.89257 17.8421 8.4542 17.6944 8.07444C17.5467 7.67593 17.3427 7.3407 17.0075 7.00783C16.6746 6.67495 16.3394 6.46866 15.9456 6.31628C15.5635 6.1686 15.1275 6.06545 14.4898 6.03732C13.8475 6.00685 13.6436 5.99982 12.0144 5.99982Z" fill="black"/>
<path d="M12.0143 8.91833C10.3124 8.91833 8.93164 10.2991 8.93164 12.001C8.93164 13.7029 10.3124 15.0836 12.0143 15.0836C13.7162 15.0836 15.0969 13.7029 15.0969 12.001C15.0969 10.2991 13.7162 8.91833 12.0143 8.91833ZM12.0143 14.0006C10.9102 14.0006 10.0147 13.1051 10.0147 12.001C10.0147 10.8968 10.9102 10.0014 12.0143 10.0014C13.1184 10.0014 14.0139 10.8968 14.0139 12.001C14.0139 13.1051 13.1184 14.0006 12.0143 14.0006Z" fill="black"/>
<path d="M15.9389 8.79652C15.9389 9.19503 15.6154 9.51619 15.2192 9.51619C14.8207 9.51619 14.4995 9.19269 14.4995 8.79652C14.4995 8.398 14.823 8.07684 15.2192 8.07684C15.6154 8.07684 15.9389 8.40034 15.9389 8.79652Z" fill="black"/>
</mask>
<g mask="url(#mask0_16593_4029)">
<rect x="6.01245" y="5.99982" width="12.0023" height="12.0023" fill="white"/>
</g>
<defs>
<linearGradient id="paint0_linear_16593_4029" x1="6.06403" y1="1.70142" x2="17.4271" y2="25.6926" gradientUnits="userSpaceOnUse">
<stop offset="0.0538" stop-color="#4E60D3"/>
<stop offset="0.291929" stop-color="#913BAF"/>
<stop offset="0.639054" stop-color="#D52D88"/>
<stop offset="1" stop-color="#F26D4F"/>
</linearGradient>
</defs>
</svg>
