<svg width="73" height="72" viewBox="0 0 73 72" fill="none" xmlns="http://www.w3.org/2000/svg">
<path d="M34.255 47.22L25.805 38.67L28.645 35.86L33.575 40.86L43.835 24.78L47.195 26.93L34.255 47.22Z" fill="#60B1FF"/>
<path d="M36.505 58.09C24.325 58.09 14.415 48.18 14.415 36C14.415 23.82 24.315 13.91 36.505 13.91C48.695 13.91 58.595 23.82 58.595 36C58.595 48.18 48.685 58.09 36.505 58.09ZM36.505 16.91C25.975 16.91 17.415 25.47 17.415 36C17.415 46.53 25.975 55.09 36.505 55.09C47.035 55.09 55.595 46.53 55.595 36C55.595 25.47 47.025 16.91 36.505 16.91Z" fill="#60B1FF"/>
<path d="M8.73499 35.4999H2.17499V36.4999H8.73499V35.4999Z" fill="#60B1FF"/>
<path d="M6.45723 21.5862L5.75012 22.2933L10.3887 26.932L11.0958 26.2248L6.45723 21.5862Z" fill="#60B1FF"/>
<path d="M10.396 44.8536L5.75739 49.4922L6.46449 50.1993L11.1031 45.5607L10.396 44.8536Z" fill="#60B1FF"/>
<path d="M70.825 35.5H64.265V36.5H70.825V35.5Z" fill="#60B1FF"/>
<path d="M66.5427 21.5822L61.9041 26.2208L62.6112 26.9279L67.2498 22.2893L66.5427 21.5822Z" fill="#60B1FF"/>
<path d="M62.6085 44.8395L61.9014 45.5466L66.54 50.1853L67.2472 49.4781L62.6085 44.8395Z" fill="#60B1FF"/>
</svg>
