<?xml version="1.0" standalone="no"?>
<!DOCTYPE svg PUBLIC "-//W3C//DTD SVG 20010904//EN"
 "http://www.w3.org/TR/2001/REC-SVG-20010904/DTD/svg10.dtd">
<svg version="1.0" xmlns="http://www.w3.org/2000/svg"
 width="1280.000000pt" height="677.000000pt" viewBox="0 0 1280.000000 677.000000"
 preserveAspectRatio="xMidYMid meet">
<metadata>
Created by potrace 1.15, written by Peter Selinger 2001-2017
</metadata>
<g transform="translate(0.000000,677.000000) scale(0.100000,-0.100000)"
fill="#f4f3ee" stroke="none">
<path d="M1085 6578 c-66 -23 -75 -28 -89 -57 -9 -16 -21 -63 -26 -103 -17
-119 -37 -188 -87 -288 -39 -80 -61 -109 -138 -186 -80 -81 -103 -98 -195
-142 -58 -28 -140 -58 -182 -68 -42 -10 -75 -21 -72 -26 3 -4 -3 -8 -14 -8
-25 0 -52 -31 -52 -59 0 -27 23 -74 60 -121 88 -113 119 -252 85 -383 -20 -76
-43 -119 -103 -195 -28 -35 -59 -83 -68 -109 -25 -65 -9 -116 72 -223 89 -118
108 -169 108 -295 0 -127 -19 -176 -113 -303 -107 -142 -106 -188 12 -340 147
-191 142 -391 -16 -590 -102 -129 -101 -184 7 -326 86 -113 116 -190 116 -296
0 -106 -30 -183 -116 -296 -108 -142 -109 -197 -7 -326 153 -192 163 -394 29
-576 -57 -77 -66 -95 -66 -130 0 -29 31 -68 43 -55 4 3 7 -6 7 -20 0 -25 3
-27 47 -27 64 0 171 -20 186 -34 7 -7 41 -28 77 -46 43 -23 96 -66 156 -125
77 -76 98 -105 137 -185 50 -100 70 -169 87 -288 5 -40 17 -86 25 -102 17 -33
50 -54 67 -44 7 5 9 -1 6 -20 l-5 -26 5432 0 5432 0 5 128 c6 148 31 239 99
362 50 89 175 218 261 269 118 69 257 110 371 111 l57 0 0 48 c0 46 -2 50 -44
80 -53 38 -106 108 -143 188 -24 52 -28 71 -28 159 0 71 5 115 18 152 24 69
96 166 152 205 l45 32 0 80 0 81 -47 35 c-60 44 -117 119 -145 190 -18 44 -22
76 -22 160 0 93 3 112 26 163 38 82 85 143 140 184 l48 35 -1 81 0 82 -42 30
c-59 43 -121 124 -148 192 -19 47 -23 78 -23 163 -1 101 0 108 36 181 29 59
54 92 108 142 l70 65 0 72 0 72 -68 63 c-110 102 -159 218 -149 355 9 133 72
251 174 325 l42 30 0 81 1 80 -46 35 c-55 41 -105 106 -141 185 -24 52 -27 71
-27 164 0 84 4 116 22 160 28 71 85 146 145 190 44 33 47 38 47 80 l0 45 -62
3 c-343 14 -643 269 -713 607 -8 39 -15 114 -15 167 l0 97 -117 6 c-211 11
-10695 14 -10728 3z"/>
</g>
</svg>
