<svg width="25" height="24" viewBox="0 0 25 24" fill="none" xmlns="http://www.w3.org/2000/svg">
<g clip-path="url(#clip0_2399_859)">
<path d="M17.5721 0.000244141H13.5275V16.3476C13.5275 18.2954 11.9719 19.8954 10.0361 19.8954C8.10018 19.8954 6.54458 18.2954 6.54458 16.3476C6.54458 14.4346 8.06562 12.8694 9.93237 12.7999V8.69567C5.81863 8.7652 2.5 12.139 2.5 16.3476C2.5 20.591 5.88776 23.9996 10.0706 23.9996C14.2535 23.9996 17.6412 20.5562 17.6412 16.3476V7.96522C19.1623 9.07826 21.029 9.73911 22.9994 9.77391V5.66965C19.9574 5.56531 17.5721 3.06103 17.5721 0.000244141Z" fill="white" fill-opacity="0.74"/>
</g>
<defs>
<clipPath id="clip0_2399_859">
<rect width="23.9993" height="23.9993" fill="white" transform="translate(0.500488 0.000305176)"/>
</clipPath>
</defs>
</svg>
