<svg width="24" height="24" viewBox="0 0 24 24" fill="none" xmlns="http://www.w3.org/2000/svg">
<path d="M18.9643 4.94643C20.8393 6.82143 22 9.27679 22 11.9554C22 17.4018 17.4464 21.8661 11.9554 21.8661C10.3036 21.8661 8.69643 21.4196 7.22321 20.6607L2 22L3.38393 16.8661C2.53571 15.3929 2.04464 13.6964 2.04464 11.9107C2.04464 6.46429 6.50893 2 11.9554 2C14.6339 2 17.1339 3.07143 18.9643 4.94643ZM11.9554 20.1696C16.5089 20.1696 20.3036 16.4643 20.3036 11.9554C20.3036 9.72321 19.3661 7.66964 17.8036 6.10714C16.2411 4.54464 14.1875 3.69643 12 3.69643C7.44643 3.69643 3.74107 7.40179 3.74107 11.9107C3.74107 13.4732 4.1875 14.9911 4.99107 16.3304L5.21429 16.6429L4.36607 19.6786L7.49107 18.8304L7.75893 19.0089C9.05357 19.7679 10.4821 20.1696 11.9554 20.1696ZM16.5089 14.0089C16.7321 14.1429 16.9107 14.1875 16.9554 14.3214C17.0446 14.4107 17.0446 14.9018 16.8214 15.4821C16.5982 16.0625 15.6161 16.5982 15.1696 16.6429C14.3661 16.7768 13.7411 16.7321 12.1786 16.0179C9.67857 14.9464 8.07143 12.4464 7.9375 12.3125C7.80357 12.1339 6.95536 10.9732 6.95536 9.72321C6.95536 8.51786 7.58036 7.9375 7.80357 7.66964C8.02679 7.40179 8.29464 7.35714 8.47321 7.35714C8.60714 7.35714 8.78571 7.35714 8.91964 7.35714C9.09821 7.35714 9.27679 7.3125 9.5 7.80357C9.67857 8.29464 10.2143 9.5 10.2589 9.63393C10.3036 9.76786 10.3482 9.90179 10.2589 10.0804C9.8125 11.0179 9.27679 10.9732 9.54464 11.4196C10.5268 13.0714 11.4643 13.6518 12.9375 14.3661C13.1607 14.5 13.2946 14.4554 13.4732 14.3214C13.6071 14.1429 14.0982 13.5625 14.2321 13.3393C14.4107 13.0714 14.5893 13.1161 14.8125 13.2054C15.0357 13.2946 16.2411 13.875 16.5089 14.0089Z" fill="#16DB65"/>
</svg>
