<svg width="21" height="20" viewBox="0 0 21 20" fill="none" xmlns="http://www.w3.org/2000/svg">
<path fill-rule="evenodd" clip-rule="evenodd" d="M11.4637 3.46967C11.1708 3.17678 10.6959 3.17678 10.403 3.46967L7.15302 6.71967C6.86013 7.01256 6.86013 7.48744 7.15302 7.78033C7.44591 8.07322 7.92079 8.07322 8.21368 7.78033L10.9333 5.06066L13.653 7.78033C13.9459 8.07322 14.4208 8.07322 14.7137 7.78033C15.0066 7.48744 15.0066 7.01256 14.7137 6.71967L11.4637 3.46967ZM7.15302 13.2803L10.403 16.5303C10.6959 16.8232 11.1708 16.8232 11.4637 16.5303L14.7137 13.2803C15.0066 12.9874 15.0066 12.5126 14.7137 12.2197C14.4208 11.9268 13.9459 11.9268 13.653 12.2197L10.9333 14.9393L8.21368 12.2197C7.92079 11.9268 7.44591 11.9268 7.15302 12.2197C6.86013 12.5126 6.86013 12.9874 7.15302 13.2803Z" fill="white" fill-opacity="0.74"/>
</svg>
