<svg width="20" height="20" viewBox="0 0 20 20" fill="none" xmlns="http://www.w3.org/2000/svg">
<path d="M9.99996 10.8334C10.4602 10.8334 10.8333 10.4603 10.8333 10.0001C10.8333 9.53984 10.4602 9.16675 9.99996 9.16675C9.53972 9.16675 9.16663 9.53984 9.16663 10.0001C9.16663 10.4603 9.53972 10.8334 9.99996 10.8334Z" stroke="white" stroke-opacity="0.74" stroke-width="1.5" stroke-linecap="round" stroke-linejoin="round"/>
<path d="M9.99996 4.99992C10.4602 4.99992 10.8333 4.62682 10.8333 4.16659C10.8333 3.70635 10.4602 3.33325 9.99996 3.33325C9.53972 3.33325 9.16663 3.70635 9.16663 4.16659C9.16663 4.62682 9.53972 4.99992 9.99996 4.99992Z" stroke="white" stroke-opacity="0.74" stroke-width="1.5" stroke-linecap="round" stroke-linejoin="round"/>
<path d="M9.99996 16.6667C10.4602 16.6667 10.8333 16.2936 10.8333 15.8333C10.8333 15.3731 10.4602 15 9.99996 15C9.53972 15 9.16663 15.3731 9.16663 15.8333C9.16663 16.2936 9.53972 16.6667 9.99996 16.6667Z" stroke="white" stroke-opacity="0.74" stroke-width="1.5" stroke-linecap="round" stroke-linejoin="round"/>
</svg>
